# xmcd
#
# Track frame offsets: 
#        150
#        15948
#        29784
#        45241
#        63987
#        77382
#        89595
#        105184
#        124446
#        143649
#        165854
#        185740
#        202170
#        219996
#        237592
#
# Disc length: 3397 seconds
#
# Revision: 2
# Processed by: cddbd v1.5.2PL0 Copyright (c) Steve Scherf et al.
# Submitted via: ExactAudioCopyFreeDBPlugin 1.0
#
DISCID=c40d430f
DTITLE=George Strait - It Just Comes Natural
DYEAR=2006
DGENRE=Country
TTITLE0=Give It Away
TTITLE1=She Told Me So
TTITLE2=That's My Kind Of Woman
TTITLE3=Wrapped
TTITLE4=It Just Comes Natural
TTITLE5=He Must Have Really Hurt You Bad
TTITLE6=A Heart Like Hers
TTITLE7=Why Can't I Leave Her Alone
TTITLE8=One Foot In Front Of The Other
TTITLE9=I Ain't Her Cowboy Anymore
TTITLE10=Texas Cookin'
TTITLE11=A Better Rain
TTITLE12=How 'Bout Them Cowgirls
TTITLE13=What Say
TTITLE14=Come On Joe
EXTD=
EXTT0=
EXTT1=
EXTT2=
EXTT3=
EXTT4=
EXTT5=
EXTT6=
EXTT7=
EXTT8=
EXTT9=
EXTT10=
EXTT11=
EXTT12=
EXTT13=
EXTT14=
PLAYORDER=
